<svg width="64" height="28" viewBox="0 0 64 28" fill="none" xmlns="http://www.w3.org/2000/svg">
<path d="M1.03796 16.1128C0.70199 16.2402 0.530118 16.6178 0.689997 16.9396C1.2603 18.0875 2.15479 19.0493 3.26905 19.7016C4.57122 20.4638 6.09508 20.7574 7.58723 20.5334C9.07938 20.3095 10.4499 19.5815 11.4709 18.4706C12.492 17.3596 13.1019 15.9327 13.1994 14.4269C13.297 12.9212 12.8761 11.4275 12.0069 10.1942C11.1377 8.9608 9.87252 8.06214 8.42171 7.6476C6.97091 7.23306 5.42192 7.32762 4.03231 7.91556C2.84323 8.41866 1.83216 9.25708 1.11856 10.3219C0.918507 10.6204 1.04025 11.0169 1.35697 11.1866C1.67369 11.3564 2.06493 11.2343 2.27213 10.9407C2.84024 10.1358 3.62413 9.5012 4.53936 9.11397C5.65526 8.64183 6.89916 8.5659 8.06421 8.89879C9.22926 9.23168 10.2453 9.95334 10.9433 10.9438C11.6413 11.9342 11.9792 13.1337 11.9009 14.3429C11.8226 15.552 11.3328 16.6979 10.5128 17.59C9.69293 18.4822 8.59234 19.0668 7.39409 19.2466C6.19584 19.4264 4.97212 19.1907 3.92643 18.5786C3.0688 18.0765 2.3733 17.3461 1.91376 16.4747C1.74615 16.1568 1.37392 15.9853 1.03796 16.1128Z" fill="white"/>
<path d="M0.826172 13.483C0.540618 13.483 0.309131 13.7145 0.309131 14.0001C0.309131 14.2856 0.540618 14.5171 0.826172 14.5171L0.826172 13.483ZM9.45006 14.3657C9.65198 14.1637 9.65198 13.8364 9.45006 13.6345L6.15963 10.344C5.95772 10.1421 5.63035 10.1421 5.42843 10.344C5.22651 10.5459 5.22651 10.8733 5.42843 11.0752L8.35325 14.0001L5.42843 16.9249C5.22651 17.1268 5.22651 17.4542 5.42843 17.6561C5.63035 17.858 5.95772 17.858 6.15963 17.6561L9.45006 14.3657ZM0.826172 14.5171L9.08446 14.5171V13.483L0.826172 13.483L0.826172 14.5171Z" fill="white"/>
<path d="M26.0429 17.817C26.4209 17.817 26.7429 17.7727 27.0089 17.684C27.2796 17.5953 27.4989 17.474 27.6669 17.32C27.8396 17.166 27.9656 16.984 28.0449 16.774C28.1242 16.5593 28.1639 16.326 28.1639 16.074C28.1639 15.5747 27.9912 15.1827 27.6459 14.898C27.3006 14.6087 26.7662 14.464 26.0429 14.464H23.9429V17.817H26.0429ZM23.9429 10.117V13.407H25.6579C26.3906 13.407 26.9342 13.26 27.2889 12.966C27.6482 12.6673 27.8279 12.266 27.8279 11.762C27.8279 11.188 27.6576 10.7703 27.3169 10.509C26.9762 10.2477 26.4466 10.117 25.7279 10.117H23.9429ZM25.7279 8.948C26.3579 8.948 26.8969 9.00867 27.3449 9.13C27.7976 9.25133 28.1686 9.42633 28.4579 9.655C28.7472 9.88367 28.9596 10.1613 29.0949 10.488C29.2349 10.81 29.3049 11.1763 29.3049 11.587C29.3049 11.8297 29.2676 12.063 29.1929 12.287C29.1182 12.511 29.0039 12.721 28.8499 12.917C28.6959 13.1083 28.5022 13.281 28.2689 13.435C28.0356 13.589 27.7602 13.7173 27.4429 13.82C28.9036 14.1093 29.6339 14.8723 29.6339 16.109C29.6339 16.5383 29.5546 16.9303 29.3959 17.285C29.2372 17.635 29.0062 17.9383 28.7029 18.195C28.3996 18.4517 28.0262 18.65 27.5829 18.79C27.1396 18.93 26.6356 19 26.0709 19H22.4519V8.948H25.7279ZM34.4653 11.776C34.988 11.776 35.4593 11.8623 35.8793 12.035C36.304 12.203 36.6633 12.448 36.9573 12.77C37.256 13.0873 37.4846 13.4723 37.6433 13.925C37.802 14.373 37.8813 14.877 37.8813 15.437C37.8813 15.997 37.802 16.5033 37.6433 16.956C37.4846 17.4087 37.256 17.7937 36.9573 18.111C36.6633 18.4283 36.304 18.6733 35.8793 18.846C35.4593 19.014 34.988 19.098 34.4653 19.098C33.938 19.098 33.462 19.014 33.0373 18.846C32.6173 18.6733 32.258 18.4283 31.9593 18.111C31.6606 17.7937 31.4296 17.4087 31.2663 16.956C31.1076 16.5033 31.0283 15.997 31.0283 15.437C31.0283 14.877 31.1076 14.373 31.2663 13.925C31.4296 13.4723 31.6606 13.0873 31.9593 12.77C32.258 12.448 32.6173 12.203 33.0373 12.035C33.462 11.8623 33.938 11.776 34.4653 11.776ZM34.4653 18.034C35.1373 18.034 35.639 17.8077 35.9703 17.355C36.3016 16.9023 36.4673 16.2653 36.4673 15.444C36.4673 14.6227 36.3016 13.9857 35.9703 13.533C35.639 13.0757 35.1373 12.847 34.4653 12.847C33.784 12.847 33.2753 13.0757 32.9393 13.533C32.608 13.9857 32.4423 14.6227 32.4423 15.444C32.4423 16.2653 32.608 16.9023 32.9393 17.355C33.2753 17.8077 33.784 18.034 34.4653 18.034ZM45.859 11.888V19H44.487V14.352C44.487 14.2587 44.4917 14.156 44.501 14.044C44.5103 13.9273 44.5243 13.8107 44.543 13.694C44.4963 13.792 44.4497 13.8853 44.403 13.974C44.361 14.058 44.3167 14.1327 44.27 14.198L41.001 18.657C40.9497 18.741 40.882 18.8203 40.798 18.895C40.714 18.9697 40.6183 19.007 40.511 19.007H39.685V11.888H41.05V16.543C41.05 16.6363 41.0453 16.7413 41.036 16.858C41.0267 16.97 41.0127 17.082 40.994 17.194C41.0873 16.9887 41.1783 16.823 41.267 16.697L44.536 12.231C44.5873 12.1517 44.655 12.0747 44.739 12C44.8277 11.9253 44.9257 11.888 45.033 11.888H45.859ZM42.856 10.138C43.0427 10.138 43.199 10.117 43.325 10.075C43.4557 10.033 43.5583 9.96533 43.633 9.872C43.7123 9.77867 43.7683 9.65733 43.801 9.508C43.8383 9.354 43.857 9.16733 43.857 8.948H44.662C44.7553 8.948 44.8277 8.99 44.879 9.074C44.9303 9.158 44.956 9.25133 44.956 9.354C44.956 9.58733 44.907 9.79733 44.809 9.984C44.7157 10.1707 44.578 10.3317 44.396 10.467C44.214 10.5977 43.9923 10.7003 43.731 10.775C43.4743 10.845 43.1827 10.88 42.856 10.88C42.5293 10.88 42.2353 10.845 41.974 10.775C41.7173 10.7003 41.498 10.5977 41.316 10.467C41.134 10.3317 40.994 10.1707 40.896 9.984C40.8027 9.79733 40.756 9.58733 40.756 9.354C40.756 9.25133 40.7817 9.158 40.833 9.074C40.8843 8.99 40.9567 8.948 41.05 8.948H41.855C41.855 9.16733 41.8713 9.354 41.904 9.508C41.9413 9.65733 41.9973 9.77867 42.072 9.872C42.1513 9.96533 42.254 10.033 42.38 10.075C42.5107 10.117 42.6693 10.138 42.856 10.138ZM54.0021 12.924H51.3211V19H49.9491V12.924H47.2681V11.888H54.0021V12.924ZM61.5948 11.888V19H60.2228V14.352C60.2228 14.2587 60.2275 14.156 60.2368 14.044C60.2461 13.9273 60.2601 13.8107 60.2788 13.694C60.2321 13.792 60.1855 13.8853 60.1388 13.974C60.0968 14.058 60.0525 14.1327 60.0058 14.198L56.7368 18.657C56.6855 18.741 56.6178 18.8203 56.5338 18.895C56.4498 18.9697 56.3541 19.007 56.2468 19.007H55.4208V11.888H56.7858V16.543C56.7858 16.6363 56.7811 16.7413 56.7718 16.858C56.7625 16.97 56.7485 17.082 56.7298 17.194C56.8231 16.9887 56.9141 16.823 57.0028 16.697L60.2718 12.231C60.3231 12.1517 60.3908 12.0747 60.4748 12C60.5635 11.9253 60.6615 11.888 60.7688 11.888H61.5948Z" fill="white"/>
</svg>
